<?xml version="1.0" encoding="UTF-8"?>
<!-- Generator: visioncortex VTracer 0.6.0 -->
<svg version="1.1" xmlns="http://www.w3.org/2000/svg" width="1920" height="1080">
<path d="M0 0 C633.6 0 1267.2 0 1920 0 C1920 349.3023325602156 1920 698.604665120444 1920 1080 C1832.8923388172796 1080 1745.7846776345589 1080 886 1080 C885.82984375 1079.32453125 885.6596875 1078.6490625 885.484375 1077.953125 C885.24203125 1077.06109375 884.9996875 1076.1690625 884.75 1075.25 C884.51796875 1074.36828125 884.2859375 1073.4865625 884.046875 1072.578125 C882.8535163784813 1069.6392567529763 881.3571256519866 1068.0844003699385 879 1066 C879.5414062499999 1067.13888671875 879.5414062499999 1067.13888671875 880.09375 1068.30078125 C880.5578125 1069.2946484375 881.021875 1070.288515625 881.5 1071.3125 C881.9640625 1072.2986328125 882.428125 1073.284765625 882.90625 1074.30078125 C884 1077 884 1077 884 1080 C856.4797010566557 1080.2102053513552 828.9595223491674 1080.3689319357504 801.4385824203491 1080.4663095474243 C788.6601980422566 1080.5127247986513 775.8823123475436 1080.5760090595627 763.104248046875 1080.678955078125 C751.9673639936714 1080.768636246809 740.8308410625983 1080.8267183550547 729.6936059594154 1080.8467964529991 C723.7958312667951 1080.8585340887514 717.8990897094943 1080.8861332163635 712.0016460418701 1080.9515705108643 C706.4503325929597 1081.0126680449373 700.9004775227492 1081.031502872038 695.3488597869873 1081.0179691314697 C693.3118344412944 1081.020444836406 691.2747602701132 1081.0383451058433 689.2380256652832 1081.0728492736816 C673.7852888029693 1081.3217883501225 673.7852888029693 1081.3217883501225 669.201005935669 1077.9276866912842 C667.4228062740075 1075.6752694159643 666.1168661294274 1073.6353444871077 665 1071 C669 1077.75 669 1077.75 669 1080 C633.03 1080 597.06 1080 560 1080 C561.1250000000001 1064.2499999999998 561.1250000000001 1064.2499999999998 563 1057 C560.1978422242826 1059.8021577757174 560.6996607343109 1061.776340879196 560.5625 1065.6875 C560.2564133461642 1071.2027280404125 559.6438345337243 1075.1721282427643 557 1080 C502.6666666666666 1080 448.3333333333334 1080 394 1080 C394.33 1077.03 394.66 1074.06 395 1071 C394.01 1073.97 393.02 1076.94 392 1080 C332.93 1080 273.86 1080 213 1080 C221.99999999999997 1059 221.99999999999997 1059 225 1055 C225.99 1055 226.98 1055 228 1055 C227.9175 1054.0241796875 227.835 1053.048359375 227.75 1052.04296875 C227.75975254078858 1047.180108099287 229.8063541426983 1043.5542291329334 232 1039.3125 C235.3327296118673 1032.5996466360216 238.35422901358112 1025.8633852290639 241.0625 1018.875 C243.58262895078607 1012.3952091157761 246.29332732284996 1006.0757514370306 249.3125 999.8125 C251.96389112921986 994.2995619791628 254.43661232564148 988.9408731625624 256 983 C255.67 982.34 255.34 981.68 255 981 C245.63314218133092 1000.7328745467105 245.63314218133092 1000.7328745467105 237.26171875 1020.8984375 C235.9660365225186 1024.083489167555 234.46866964378572 1027.0793202363207 232.875 1030.125 C230.87405499684905 1034.0037549291849 229.41516030405322 1037.6717114264995 228.25 1041.875 C225.6296420082907 1051.0462529709826 221.3596261933707 1059.5548429436749 217.30859375 1068.1650390625 C215.496550994856 1072.090680941741 213.75601061972324 1076.0489761056226 212 1080 C142.04 1080 72.07999999999998 1080 0 1080 C0 996.18 0 912.36 0 826 C1.98 825.34 3.96 824.68 6 824 C5.34 824 4.68 824 4 824 C2.6799999999999997 824 1.3599999999999999 824 0 824 C0 764.93 0 705.86 0 645 C0.66 645 1.32 645 2 645 C1.3399999999999999 644.67 0.6799999999999999 644.34 0 644 C0 431.48 0 218.95999999999998 0 0 Z M52 486 C52.309375 486.61875 52.61875 487.2375 52.9375 487.875 C53.625 489.25 54.3125 490.625 55 492 C55.66 491.67 56.32 491.34 57 491 C55.35 489.35 53.7 487.7 52 486 Z M23 488 C27 489 27 489 27 489 Z M16 489 C16 489.33 16 489.66 16 490 C17.65 490 19.3 490 21 490 C21 489.67 21 489.34 21 489 C19.35 489 17.7 489 16 489 Z M83 535 C82.67 535.66 82.34 536.32 82 537 C82.99 536.67 83.98 536.34 85 536 C84.34 535.67 83.68 535.34 83 535 Z M49 545 C50.98 545 52.96 545 55 545 C55 544.34 55 543.68 55 543 C52.53721199041085 543 51.147758813856434 543.8545286326099 49 545 Z M41 546 C41.33 547.32 41.66 548.64 42 550 C42.66 550 43.32 550 44 550 C44 548.68 44 547.36 44 546 C43.01 546 42.02 546 41 546 Z M30 547 C30.33 548.65 30.66 550.3 31 552 C31.33 552 31.66 552 32 552 C32 550.35 32 548.7 32 547 C31.34 547 30.68 547 30 547 Z M45 550 C45.33 551.65 45.66 553.3 46 555 C46.66 555 47.32 555 48 555 C47.505 552.525 47.505 552.525 47 550 C46.34 550 45.68 550 45 550 Z M4 788 C4 790.97 4 793.94 4 797 C4.99 796.67 5.98 796.34 7 796 C7.33 793.69 7.66 791.38 8 789 C6.68 788.67 5.359999999999999 788.34 4 788 Z M208 799 C212 800 212 800 212 800 Z M184 802 C188 803 188 803 188 803 Z M177 803 C177 803.33 177 803.66 177 804 C178.98 804 180.96 804 183 804 C183 803.67 183 803.34 183 803 C181.02 803 179.04 803 177 803 Z M171 804 C175 805 175 805 175 805 Z M120 805 C119.505 806.98 119.505 806.98 119 809 C122.47939051170702 808.8592311110783 125.95845058762113 808.7114433294756 129.4375 808.5625 C130.41138671875 808.52318359375 131.3852734375 808.4838671875 132.388671875 808.443359375 C138.30061598690534 808.1863183266563 144.1264599657867 807.722803789112 150 807 C150 806.67 150 806.34 150 806 C149.233330078125 806.0052368164063 148.46666015625 806.0104736328125 147.6767578125 806.015869140625 C144.20118021993412 806.036663644549 140.72561572780762 806.0496680853931 137.25 806.0625 C135.44015625 806.075068359375 135.44015625 806.075068359375 133.59375 806.087890625 C131.853515625 806.092724609375 131.853515625 806.092724609375 130.078125 806.09765625 C129.009814453125 806.1028930664063 127.94150390625 806.1081298828125 126.8408203125 806.113525390625 C124.37610764556702 806.0150300838079 122.34754532856199 805.7156546413021 120 805 Z M157 805 C157 805.33 157 805.66 157 806 C161.29 806 165.58 806 170 806 C170 805.67 170 805.34 170 805 C165.71 805 161.42 805 157 805 Z M87 809 C86.67 809.99 86.34 810.98 86 812 C84.8772265625 812.048984375 83.754453125 812.09796875 82.59765625 812.1484375 C74.86613308447401 812.5220285646884 67.50489082815163 812.9532115923223 60 815 C60 815.33 60 815.66 60 816 C68.75462666492604 815.2907855453717 77.50227040787485 814.5130097792335 86.24755859375 813.69775390625 C87.67650337309162 813.564927962795 89.10554185874858 813.433106612527 90.53466796875 813.30224609375 C92.6352957503124 813.1098914025504 94.73563743599004 812.9146469054153 96.8359375 812.71875 C98.06876464843751 812.60466796875 99.301591796875 812.4905859375 100.57177734375 812.373046875 C103.74314840876724 812.0279496675263 106.86020298478077 811.559841365637 110 811 C110 810.67 110 810.34 110 810 C108.7586328125 810.0116015625 107.517265625 810.023203125 106.23828125 810.03515625 C104.5963556753818 810.044538681855 102.95442846817471 810.0536383968564 101.3125 810.0625 C100.087568359375 810.075068359375 100.087568359375 810.075068359375 98.837890625 810.087890625 C94.75500916446202 810.1044205094556 90.98348292987085 810.0303509818607 87 809 Z M55 816 C59 817 59 817 59 817 Z M49 817 C53 818 53 818 53 818 Z M43 818 C43 818.33 43 818.66 43 819 C44.65 819 46.3 819 48 819 C48 818.67 48 818.34 48 818 C46.35 818 44.7 818 43 818 Z M318 828 C310.71096787291856 843.8473671587844 303.7613182412656 859.7106143041647 297.63671875 876.05078125 C295.647505056117 881.348847851715 293.5701660382156 886.6060667945064 291.45703125 891.85546875 C290.8469260408856 893.3772469087272 290.2368998013865 894.8990567300505 289.626953125 896.4208984375 C288.7255774415281 898.6690169418501 287.8213612282302 900.915750907728 286.907470703125 903.1588134765625 C286.0614156732383 905.2367180732135 285.22692665668154 907.318937288629 284.39453125 909.40234375 C283.90831298828124 910.6036694335937 283.4220947265625 911.8049951171874 282.921142578125 913.042724609375 C281.68001320620084 916.0134561657903 281.68001320620084 916.0134561657903 283 919 C284.8575825019307 914.5430840340662 286.71141677374277 910.0846187059935 288.5625 905.625 C288.8373321533203 904.9630664062499 289.11216430664064 904.3011328125 289.39532470703125 903.619140625 C292.64687531839036 895.7805683626943 295.8515413587389 887.9300341703283 298.875 880 C301.2092824835941 873.886701558931 303.78569816095876 867.9460825971295 306.59375 862.03125 C308.0329385008122 858.9289992315826 309.3388072583011 855.7934260222339 310.625 852.625 C311.9593774866761 849.3660395998488 313.31916309028827 846.2734087655022 315.125 843.25 C317.24697608411964 839.5719081208593 318.5777097520469 835.9959583156776 320 832 C320.33 831.34 320.65999999999997 830.68 321 830 C320.505 829.01 320.505 829.01 320 828 C319.34000000000003 828 318.68 828 318 828 Z M1616 900 C1615.780859375 900.8108203125 1615.56171875 901.621640625 1615.3359375 902.45703125 C1613.318252963317 909.5025231890678 1610.8695413449861 915.578942521488 1607.07421875 921.85546875 C1606.7197265625 922.5631640625 1606.365234375 923.270859375 1606 924 C1606.8418861169916 925.9472953723305 1606.8418861169916 925.9472953723305 1608 927 C1608.5595036361667 929.3452768997864 1609.0732957942005 931.7015579633155 1609.5625 934.0625 C1609.8319140625 935.3528515625 1610.101328125 936.643203125 1610.37890625 937.97265625 C1610.5838671875 938.9716796875 1610.788828125 939.970703125 1611 941 C1611.66 941 1612.32 941 1613 941 C1612.9394140625 940.3335546875 1612.878828125 939.667109375 1612.81640625 938.98046875 C1612.2109375 932.3203125 1611.60546875 925.66015625 1611 919 C1611.99 918.67 1612.98 918.34 1614 918 C1614.7307729300194 916.2246741461337 1614.7307729300194 916.2246741461337 1615.0625 914.125 C1615.6650556030347 911.0146653633825 1616.1591917701423 909.7612123447864 1618 907 C1618.1669923234283 903.8747816657147 1618.1669923234283 903.8747816657147 1618 901 C1617.34 900.67 1616.68 900.34 1616 900 Z M281 919 C279.8007797570558 921.7662811090358 278.6153950086874 924.5371549985784 277.4375 927.3125 C277.09525390625 928.09818359375 276.7530078125 928.8838671875 276.400390625 929.693359375 C276.08134765625 930.45068359375 275.7623046875 931.2080078125 275.43359375 931.98828125 C275.1350952148438 932.6847778320313 274.8365966796875 933.3812744140625 274.529052734375 934.098876953125 C273.754695122719 936.195735893572 273.754695122719 936.195735893572 275 939 C276.1992202429442 936.2337188909642 277.3846049913126 933.4628450014216 278.5625 930.6875 C278.90474609375 929.90181640625 279.2469921875 929.1161328125 279.599609375 928.306640625 C279.91865234375 927.54931640625 280.2376953125 926.7919921875 280.56640625 926.01171875 C280.8649047851562 925.3152221679687 281.1634033203125 924.6187255859375 281.470947265625 923.901123046875 C282.245304877281 921.804264106428 282.245304877281 921.804264106428 281 919 Z M1603 928 C1604 930 1604 930 1604 930 Z M1602 930 C1600.6472188498415 931.9868973142952 1599.3143169461262 933.9874521762443 1598 936 C1597.67 936.33 1597.34 936.66 1597 937 C1596.7169376622342 939.5475610398928 1596.5518421433414 942.0951002208005 1596.37890625 944.65234375 C1596 947 1596 947 1594 949 C1593.6023573738648 950.9882131306757 1593.2622465141822 952.9894433912693 1593 955 C1593.99 955 1594.98 955 1596 955 C1596.28875 953.906875 1596.5775 952.81375 1596.875 951.6875 C1598 948 1598 948 1600 945 C1600.6336555817124 942.9284826293085 1600.6336555817124 942.9284826293085 1601.0625 940.6875 C1601.2262109375 939.89859375 1601.389921875 939.1096875 1601.55859375 938.296875 C1602.0887132060138 935.5383772996802 1602.5728716511737 932.7763342673707 1603 930 C1602.67 930 1602.34 930 1602 930 Z M291 937 C290.01 938.485 290.01 938.485 289 940 C290.32 939.34 291.64 938.68 293 938 C292.34 937.67 291.68 937.34 291 937 Z M273 939 C271.9670915923267 940.931089631737 270.9490132822248 942.8701180024703 269.9375 944.8125 C269.3690234375 945.8914453125 268.800546875 946.970390625 268.21484375 948.08203125 C266.6308421131988 950.9868024318946 266.6308421131988 950.9868024318946 268 954 C269.0329084076733 952.068910368263 270.0509867177752 950.1298819975297 271.0625 948.1875 C271.6309765625 947.1085546875 272.199453125 946.029609375 272.78515625 944.91796875 C274.3691578868012 942.0131975681054 274.3691578868012 942.0131975681054 273 939 Z M280 948 C281 950 281 950 281 950 Z M278 951 C279 953 279 953 279 953 Z M266 954 C267 956 267 956 267 956 Z M276 954 C277 956 277 956 277 956 Z M265 956 C263.8748391518115 957.83284443123 263.8748391518115 957.83284443123 263 960 C263.33 960.99 263.66 961.98 264 963 C265.1251608481885 961.16715556877 265.1251608481885 961.16715556877 266 959 C265.67 958.01 265.34 957.02 265 956 Z M274 957 C274 960 274 960 274 960 Z M271 961 C272 963 272 963 272 963 Z M262 963 C263 965 263 965 263 965 Z M261 965 C262 967 262 967 262 967 Z M268 965 C269 967 269 967 269 967 Z M260 967 C261 970 261 970 261 970 Z M259 970 C260 972 260 972 260 972 Z M258 972 C259 974 259 974 259 974 Z M1653 977 C1654.98 977.99 1654.98 977.99 1657 979 C1656.67 978.34 1656.34 977.68 1656 977 C1655.01 977 1654.02 977 1653 977 Z M1664 981 C1664.33 981.99 1664.66 982.98 1665 984 C1665.66 983.34 1666.32 982.68 1667 982 C1666.01 981.67 1665.02 981.34 1664 981 Z M1705 992 C1705.33 992.66 1705.66 993.32 1706 994 C1707.32 993.67 1708.64 993.34 1710 993 C1708.35 992.67 1706.7 992.34 1705 992 Z M1713 994 C1713.33 994.66 1713.66 995.32 1714 996 C1715.32 995.67 1716.64 995.34 1718 995 C1716.35 994.67 1714.7 994.34 1713 994 Z M1805 999 C1805 999.33 1805 999.66 1805 1000 C1810.2251227901038 1001.4667011340642 1814.5814234006086 1002.2257740249746 1820 1002 C1819.38125 1001.690625 1818.7625 1001.38125 1818.125 1001.0625 C1816.75 1000.375 1815.375 999.6875 1814 999 C1812.459760039345 998.930494586613 1810.9166501227949 998.9154764268172 1809.375 998.9375 C1808.557734375 998.9465234375 1807.74046875 998.955546875 1806.8984375 998.96484375 C1806.271953125 998.9764453125 1805.64546875 998.988046875 1805 999 Z M1737 1001 C1738.8388388097717 1003.2872873391026 1738.8388388097717 1003.2872873391026 1741.625 1003.125 C1742.40875 1003.08375 1743.1925 1003.0425 1744 1003 C1741.3526108365015 1001.5393714960009 1740.105516657081 1001 1737 1001 Z M1789.875 1002.5 C1788.7883203125 1002.91765625 1788.7883203125 1002.91765625 1787.6796875 1003.34375 C1787.125390625 1003.5603125 1786.57109375 1003.776875 1786 1004 C1789.7142535119722 1005.1166519087166 1791.506395253008 1004.7940132484554 1795 1003 C1795.33 1002.34 1795.66 1001.68 1796 1001 C1793.6345628395618 1001 1792.0769573606624 1001.6476294087759 1789.875 1002.5 Z M1820 1002 C1823.991103190213 1003.9955515951065 1825.6998656564388 1004.19546065198 1830 1004 C1830 1003.67 1830 1003.34 1830 1003 C1826.7 1002.67 1823.4 1002.34 1820 1002 Z M1753 1005 C1753.99 1005.99 1754.98 1006.98 1756 1008 C1757.32 1007.34 1758.64 1006.68 1760 1006 C1757.69 1005.67 1755.38 1005.34 1753 1005 Z M1760 1007 C1760 1007.33 1760 1007.66 1760 1008 C1761.65 1008 1763.3 1008 1765 1008 C1765 1007.67 1765 1007.34 1765 1007 C1763.35 1007 1761.7 1007 1760 1007 Z M1841 1008 C1841.33 1008.66 1841.66 1009.32 1842 1010 C1842.99 1009.67 1843.98 1009.34 1845 1009 C1843.68 1008.67 1842.36 1008.34 1841 1008 Z M1772 1009 C1772.33 1009.99 1772.66 1010.98 1773 1012 C1773.99 1011.01 1774.98 1010.02 1776 1009 C1774.68 1009 1773.36 1009 1772 1009 Z M1850 1012 C1850.33 1012.99 1850.66 1013.98 1851 1015 C1851.99 1014.67 1852.98 1014.34 1854 1014 C1852.68 1013.34 1851.36 1012.68 1850 1012 Z M1854 1015 C1854 1015.66 1854 1016.32 1854 1017 C1854.66 1016.67 1855.32 1016.34 1856 1016 C1855.34 1015.67 1854.68 1015.34 1854 1015 Z M1859 1018 C1859 1018.66 1859 1019.32 1859 1020 C1859.66 1019.67 1860.32 1019.34 1861 1019 C1860.34 1018.67 1859.68 1018.34 1859 1018 Z M1861 1021 C1862.8438940201759 1024.5033986383344 1864.1127875502964 1026.7852461094676 1868 1028 C1868.99 1027.67 1869.98 1027.34 1871 1027 C1870.34 1027 1869.68 1027 1869 1027 C1868.731875 1026.38125 1868.46375 1025.7625 1868.1875 1025.125 C1867.0444315151012 1022.7004766978658 1867.0444315151012 1022.7004766978658 1864 1021 C1863.01 1021 1862.02 1021 1861 1021 Z M1807 1028 C1807 1028.33 1807 1028.66 1807 1029 C1808.98 1029 1810.96 1029 1813 1029 C1813 1028.67 1813 1028.34 1813 1028 C1811.02 1028 1809.04 1028 1807 1028 Z M1868 1041 C1868.66 1041.66 1869.32 1042.32 1870 1043 C1870 1042.34 1870 1041.68 1870 1041 C1869.34 1041 1868.68 1041 1868 1041 Z M648 1044 C648.33 1044.99 648.66 1045.98 649 1047 C649 1046.01 649 1045.02 649 1044 C648.67 1044 648.34 1044 648 1044 Z M650 1047 C651 1049 651 1049 651 1049 Z M652 1051 C652.33 1051.99 652.66 1052.98 653 1054 C653 1053.01 653 1052.02 653 1051 C652.67 1051 652.34 1051 652 1051 Z M655 1055 C656 1057 656 1057 656 1057 Z M656 1058 C656.33 1058.99 656.66 1059.98 657 1061 C657 1060.01 657 1059.02 657 1058 C656.67 1058 656.34 1058 656 1058 Z M1160 1063 C1160 1063.33 1160 1063.66 1160 1064 C1163.3 1064.33 1166.6 1064.66 1170 1065 C1166.008896809787 1063.0044484048935 1164.3001343435612 1062.80453934802 1160 1063 Z M1202 1069 C1204.8672468643197 1068.426550627136 1205.8614515038682 1068.1385484961318 1208 1066 C1209.32 1066 1210.64 1066 1212 1066 C1213.907858398199 1069.1749093954766 1214.160904101 1071.1058521132006 1213.625 1074.75 C1213.4587109375 1075.948828125 1213.4587109375 1075.948828125 1213.2890625 1077.171875 C1213.1459765625 1078.076796875 1213.1459765625 1078.076796875 1213 1079 C1215.0784010219184 1077.835751775291 1215.0784010219184 1077.835751775291 1217 1076 C1217.5575299332186 1073.5982871587053 1217.5575299332186 1073.5982871587053 1217.375 1071 C1217.362109375 1070.13375 1217.34921875 1069.2675 1217.3359375 1068.375 C1217.13759291125 1065.737629192016 1217.13759291125 1065.737629192016 1215 1063 C1207.9646037208006 1061.961990712905 1205.8895850638157 1063.1656224042765 1202 1069 Z M661 1065 C662 1067 662 1067 662 1067 Z M1134 1066 C1133.67 1066.66 1133.34 1067.32 1133 1068 C1133.99 1067.67 1134.98 1067.34 1136 1067 C1135.34 1066.67 1134.68 1066.34 1134 1066 Z M1179 1066 C1179 1066.99 1179 1067.98 1179 1069 C1185.8007404078255 1070.9042073141911 1191.9192374862748 1072.408505529638 1199 1072 C1199.33 1071.34 1199.66 1070.68 1200 1070 C1198.9829296875 1069.94392578125 1198.9829296875 1069.94392578125 1197.9453125 1069.88671875 C1191.269331859202 1069.415146710276 1185.3229155274441 1068.1807886526326 1179 1066 Z M662 1067 C662.33 1067.99 662.66 1068.98 663 1070 C663 1069.01 663 1068.02 663 1067 C662.67 1067 662.34 1067 662 1067 Z M1132 1068 C1130.35 1069.98 1128.7 1071.96 1127 1074 C1127.33 1074.66 1127.66 1075.32 1128 1076 C1129.65 1074.02 1131.3 1072.04 1133 1070 C1132.67 1069.34 1132.34 1068.68 1132 1068 Z M659 1073 C659.33 1074.32 659.66 1075.64 660 1077 C660.33 1076.34 660.66 1075.68 661 1075 C660.34 1074.34 659.68 1073.68 659 1073 Z M542 1074 C542.33 1074.99 542.66 1075.98 543 1077 C543 1076.01 543 1075.02 543 1074 C542.67 1074 542.34 1074 542 1074 Z " fill="#000000" transform="translate(0,0)"/>
</svg>
