<?xml version="1.0" encoding="UTF-8"?>
<!-- Generator: visioncortex VTracer 0.6.0 -->
<svg version="1.1" xmlns="http://www.w3.org/2000/svg" width="600" height="403">
<path d="M0 0 C8.599247345136519 5.5393924615909995 15.398453829221012 12.387700986342686 21.53125 20.53125 C22.981893148429208 22.600864467673418 22.981893148429208 22.600864467673418 25.125 23.5 C25.496250000000032 22.169687500000002 25.496250000000032 22.169687500000002 25.875 20.8125 C27.557159426820476 16.354777518925772 29.698888677859372 13.617762928164275 33.4375 10.6875 C37.10839819423086 9.06547521650264 39.13614195542311 8.823922365325952 43.125 9.5 C47.7792625138336 12.559984746664064 51.78588481206339 16.383185526388594 54.125 21.5 C54.125 22.159999999999997 54.125 22.82 54.125 23.5 C54.78499999999997 23.5 55.44499999999999 23.5 56.125 23.5 C56.37378906250001 22.937968749999996 56.62257812500002 22.3759375 56.87890625 21.796875 C62.69926663151921 11.068436428422324 74.78250700726414 1.7294041667828672 86.125 -2.5 C91.20432660519339 -1.8028375247773774 93.88645782610303 0.6317412922897176 97.125 4.5 C100.57489457861243 11.054799699363627 100.2764837757021 18.428166510689522 99.875 25.625 C99.83125244140626 26.452336425781255 99.78750488281253 27.279672851562495 99.742431640625 28.132080078125 C99.29535973526129 35.15662083774452 98.06015384147895 41.720876165384915 96.125 48.5 C97.77499999999998 48.5 99.42500000000001 48.5 101.125 48.5 C101.47111328124998 47.03240234374999 101.47111328124998 47.03240234374999 101.82421875 45.53515625 C105.80057078986727 29.27712427896205 105.80057078986727 29.27712427896205 110.125 24.5 C113.625 23.0625 113.625 23.0625 117.125 23.5 C122.43776593456653 27.94789706149757 124.05476144856937 34.06031786997387 126.125 40.5 C126.74374999999998 42.3253125 126.74374999999998 42.3253125 127.375 44.1875 C127.74625000000003 45.3321875 127.74625000000003 45.3321875 128.125 46.5 C128.488515625 45.68595703125 128.488515625 45.68595703125 128.859375 44.85546875 C132.49106546426185 37.103206412825664 132.49106546426185 37.103206412825664 136.125 35.5 C139.0546875 35.58984375 139.0546875 35.58984375 142.125 36.5 C143.95312500000006 38.976562500000135 143.95312500000006 38.976562500000135 145.375 42.125 C145.85453124999998 43.148515625 146.33406250000002 44.17203125 146.828125 45.2265625 C150.0290709090225 53.306058499279615 150.377170517337 59.91693647373425 150.26025390625 68.595458984375 C150.24606163024902 70.55745994567872 150.24606163024902 70.55745994567872 150.23158264160156 72.55909729003906 C150.20552857500428 76.12894400106809 150.16685976371105 79.69855382717726 150.12585878372192 83.26825594902039 C150.08510546841256 87.00511453202587 150.05604643869145 90.74206399067685 150.02572631835938 94.47901916503906 C149.96660581011247 101.54790599499803 149.89702745782694 108.61664931694239 149.82365548610687 115.68540102243423 C149.74060279268434 123.73612624490852 149.6692637086212 131.7869420785747 149.5988895893097 139.83778655529022 C149.45392433392504 156.39199296770676 149.2943105996696 172.94602429970533 149.125 189.5 C150.07375000000002 189.78875 151.02249999999998 190.0775 152 190.375 C155.125 191.5 155.125 191.5 157.125 193.5 C159.46939245705903 194.29835090058714 159.46939245705903 194.29835090058714 162.2265625 194.9453125 C163.267158203125 195.21351806640624 164.30775390625 195.4817236328125 165.3798828125 195.758056640625 C166.49202148437502 196.04414794921874 167.60416015624997 196.3302392578125 168.75 196.625 C176.57034987279104 198.72983409336982 184.11190726634788 200.94061901184202 191.375 204.5625 C191.9984228515625 204.8662353515625 192.62184570312502 205.169970703125 193.26416015625 205.48291015625 C198.4728017044996 208.24042627002922 202.2366374002949 211.83491220088467 204.125 217.5 C204.22247020953716 220.51054213230853 204.26492888048602 223.49730031539576 204.2578125 226.5078125 C204.25924758911128 227.8296504211426 204.25924758911128 227.8296504211426 204.26071166992188 229.17819213867188 C204.26139185738242 231.03920564250313 204.25954880333495 232.9002215298032 204.25537109375 234.76123046875 C204.25000783618628 237.62082188794966 204.25532806306563 240.48025714251492 204.26171875 243.33984375 C204.26105819041152 245.14583368191836 204.25977748749847 246.9518235162701 204.2578125 248.7578125 C204.25983673095703 249.61819122314455 204.26186096191407 250.4785699462891 204.26394653320313 251.36502075195313 C204.23995872370205 257.38504127629795 204.23995872370205 257.38504127629795 203.125 258.5 C194.69267386308832 259.2830017127132 187.22823048810875 258.23548699207254 180.125 253.5 C179.93937499999998 254.325 179.75375000000003 255.14999999999998 179.5625 256 C176.09007820071668 264.45459220695074 169.25656720033214 269.7027704625177 161.125 273.5 C151.71675310527274 276.7889333682408 142.2861260153323 276.295125041253 133.125 272.5 C129.68655599641727 270.65142476961967 126.38633437837751 268.6441538785503 123.125 266.5 C122.85945312499996 267.0878125 122.59390625000003 267.675625 122.3203125 268.28125 C118.89972137409165 274.6305825474377 112.90102032348113 279.2413265588396 106.125 281.5 C94.40999485288523 284.43254992657995 84.87135175039299 283.5096709696064 74.23046875 277.80859375 C71.82909375032415 276.31608795242784 69.91356065371292 274.69505171137496 68.125 272.5 C66.12865642798295 274.1400427287351 65.20753000675211 275.0179693286638 64.76423645019531 277.6071014404297 C64.77422920227048 278.8228862762451 64.77422920227048 278.8228862762451 64.784423828125 280.063232421875 C64.78476371765134 281.4443244171142 64.78476371765134 281.4443244171142 64.78511047363281 282.8533172607422 C64.80059432983398 283.8440272521973 64.81607818603516 284.83473724365234 64.83203125 285.85546875 C64.83627609252926 286.87224197387695 64.84052093505863 287.8890151977539 64.84489440917969 288.9365997314453 C64.86170002640819 292.1871681185878 64.89935617927381 295.43711869798994 64.9375 298.6875 C64.95254438090387 300.8899650108244 64.96623321285892 303.0924397298614 64.978515625 305.294921875 C65.01160964134493 310.69682571786825 65.06182777301979 316.09836872476455 65.125 321.5 C65.76002441406251 321.5751684570312 66.39504882812503 321.6503369140625 67.04931640625 321.727783203125 C69.95106303098567 322.0778662584346 72.85040691838242 322.44502319709636 75.75 322.8125 C76.7490234375 322.93044921875 77.748046875 323.0483984375 78.77734375 323.169921875 C85.08703613315942 323.9847496993153 90.44898795827328 324.8239879582733 95.125 329.5 C95.57795333330665 333.12644504274937 95.44904801588353 336.7860173776237 95.4375 340.4375 C95.45361328125 341.45263671875 95.4697265625 342.4677734375 95.486328125 343.513671875 C95.48697265625003 344.48755859375 95.4876171875 345.4614453125 95.48828125 346.46484375 C95.49126220703124 347.35808349609374 95.49424316406248 348.2513232421875 95.497314453125 349.171630859375 C95.05246257910431 351.953632382349 94.32137310333889 352.79681340788255 92.125 354.5 C67.37554803283774 365.637253385223 30.340527863169314 361.86556452416204 4.125 358.125 C3.317966308593782 358.011240234375 2.510932617187507 357.89748046875 1.679443359375 357.7802734375 C-3.247785542594727 356.9972621701036 -7.415285478881344 355.76469878025557 -11.875 353.5 C-13.813440524503733 349.6231189509926 -13.190388878624901 344.88990477474687 -13.25 340.625 C-13.287382812499999 339.6182421875 -13.324765624999998 338.611484375 -13.36328125 337.57421875 C-13.451070612491463 330.2291754215475 -13.451070612491463 330.2291754215475 -10.83203125 326.9140625 C-7.339772304845724 325.24405227787867 -3.9796446757226818 324.36455156803896 -0.1875 323.75 C0.46927734374997954 323.6249609375 1.126054687500016 323.499921875 1.802734375 323.37109375 C5.695128128421345 322.6866341721037 9.440300829838407 322.4408441978192 13.393798828125 322.4677734375 C14.72777458190916 322.47475250244145 14.72777458190916 322.47475250244145 16.088699340820313 322.48187255859375 C16.760678558349582 322.4878546142578 17.43265777587891 322.49383666992185 18.125 322.5 C18.180040114408598 316.80640594284347 18.18235686982939 311.1160461165747 18.13720703125 305.42236328125 C18.129128867970167 303.48845099205096 18.135101962134343 301.5544242745055 18.15576171875 299.62060546875 C18.63934589874293 288.5851451831834 18.63934589874293 288.5851451831834 15.27734375 278.40234375 C13.320143725392995 276.44514372539305 11.503460332638213 274.9032374172057 9.125 273.5 C6.369526406078421 274.85447026232777 3.814523471609789 276.3109162676948 1.25 278 C-7.468808184749605 283.4592905760863 -16.29690435574875 284.33198697297695 -26.24609375 282.21484375 C-34.31142915423999 280.02174363265095 -40.03861903390566 275.4002363377146 -45.875 269.5 C-46.204999999999984 268.84 -46.535 268.18 -46.875 267.5 C-49.01238325634489 268.5588419357469 -51.13423444493196 269.63731725548377 -53.2421875 270.75390625 C-61.70530610029664 275.1700195383168 -61.70530610029664 275.1700195383168 -66.875 275.5 C-67.81859374999999 275.5928125 -67.81859374999999 275.5928125 -68.78125 275.6875 C-78.24387809971046 276.23605815070783 -87.16600362466056 273.48165873693 -94.3125 267.25 C-98.2972088281985 263.33029457846055 -101.76403905154933 259.1411490572415 -104.875 254.5 C-105.97908203124999 254.93312500000002 -105.97908203124999 254.93312500000002 -107.10546875 255.375 C-108.08128906249999 255.74624999999997 -109.05710937500001 256.1175 -110.0625 256.5 C-111.02542968750001 256.87125 -111.98835937499999 257.2425 -112.98046875 257.625 C-115.81889895261526 258.4830409789282 -117.94043338506964 258.56920127610744 -120.875 258.5 C-120.99885848912561 252.34366143589148 -121.08946257107993 246.188052529375 -121.149658203125 240.03076171875 C-121.17475879619138 237.93753419632407 -121.2088467722212 235.84439394793276 -121.252197265625 233.75146484375 C-121.31304451434366 230.73773640721384 -121.34125449625478 227.7251694114459 -121.36328125 224.7109375 C-121.40199089050293 223.31371963500976 -121.40199089050293 223.31371963500976 -121.44148254394531 221.88827514648438 C-121.44335125343846 217.53159075029228 -121.3437429060005 214.47746878086772 -118.556396484375 210.996826171875 C-114.83708692490976 207.5335302723347 -114.83708692490976 207.5335302723347 -112.484375 206.33984375 C-111.86570556640626 206.02362060546875 -111.2470361328125 205.7073974609375 -110.609619140625 205.381591796875 C-109.62723266601563 204.91426635742187 -109.62723266601563 204.91426635742187 -108.625 204.4375 C-107.93333740234374 204.09952392578126 -107.2416748046875 203.7615478515625 -106.529052734375 203.413330078125 C-98.91358333640665 199.83013325592017 -90.97678558537169 197.67933041413488 -82.875 195.5 C-78.38269799870727 194.12236071960356 -74.05373245395015 192.6677751140801 -69.875 190.5 C-69.875921792984 189.86370257377624 -69.876843585968 189.2274051475525 -69.87779331207275 188.57182598114014 C-69.89986492077989 173.09877258143027 -69.91641956395335 157.62572464698437 -69.92681217193604 142.15265941619873 C-69.9319713671864 134.67004519293522 -69.93900692287485 127.18744146916717 -69.950439453125 119.704833984375 C-69.9603977604003 113.18400656126187 -69.96685617033523 106.66318674106134 -69.96908849477768 100.14235192537308 C-69.97039364510005 96.68871991283032 -69.97346719520496 93.23510965370063 -69.9807300567627 89.78148460388184 C-69.98876666114734 85.92878177030616 -69.988990393802 82.07610033921276 -69.988525390625 78.223388671875 C-69.99212066650392 77.07468292236328 -69.99571594238282 75.92597717285156 -69.99942016601563 74.74246215820313 C-69.99804550170899 73.69498306274414 -69.99667083740235 72.64750396728516 -69.99525451660156 71.56828308105469 C-69.99617630958556 70.65662981986999 -69.99709810256957 69.74497655868531 -69.99804782867432 68.80569744110107 C-69.875 66.49999999999999 -69.875 66.49999999999999 -68.875 63.5 C-68.7492064201924 62.00165869384722 -68.64779496296262 60.50119134814241 -68.5625 59 C-67.78328189229924 50.67210647394813 -64.9370706192289 41.56207061922889 -58.875 35.5 C-56.625 35.125 -56.625 35.125 -53.875 35.5 C-49.10295430641668 39.13584433796824 -47.65407770257826 42.9754955551517 -45.875 48.5 C-45.655859375000006 47.4494140625 -45.43671875000001 46.398828124999994 -45.2109375 45.31640625 C-41.564186006593985 28.793907574374053 -41.564186006593985 28.793907574374053 -35.875 23.5 C-32.8125 22.5625 -32.8125 22.5625 -29.875 23.5 C-22.90147403764189 29.477307967735527 -20.68075262374788 39.63672113877312 -19.875 48.5 C-19.215000000000003 48.5 -18.555000000000007 48.5 -17.875 48.5 C-18.068359375 47.940546874999995 -18.26171875 47.38109374999999 -18.4609375 46.8046875 C-22.720007892044805 33.69012421360465 -25.51340165975165 17.894036253440106 -20.875 4.5 C-19.21211965425863 1.4513860328074522 -17.80110092737607 -0.7392742382267876 -15.125 -2.9375 C-9.416067706251738 -4.364733073437073 -4.943134295430923 -2.7980005445835303 0 0 Z M-13.875 -0.5 C-18.219905085792902 3.1207542381607354 -19.491141439339344 6.9541806907625485 -20.09619140625 12.543212890625 C-20.21694827035543 14.783381184529631 -20.254209052902212 17.006574803122533 -20.25 19.25 C-20.24983886718752 20.065493164062502 -20.249677734374984 20.880986328125005 -20.24951171875 21.72119140625 C-20.06491066503537 31.878135698527053 -18.69074442178899 44.3735330433512 -13.875 53.5 C-12.946875000000006 53.58250000000001 -12.018750000000011 53.66499999999999 -11.0625 53.75 C-7.875 54.5 -7.875 54.5 -6.546875 56.48046875 C-5.724221195398627 58.11796635472862 -4.905204413845468 59.757296227723145 -4.08984375 61.3984375 C-2.9721707107789257 63.71096982884754 -2.9721707107789257 63.71096982884754 -0.375 65.0625 C2.3059745454842755 65.53167054545975 4.413251689815979 65.82540979722208 7.125 65.5 C8.92460509916907 63.57726253797492 8.92460509916907 63.57726253797492 10.25 61.0625 C12.836053652230135 56.59631544925662 12.836053652230135 56.59631544925662 16.125 55.5 C16.23457031250001 54.74976562500001 16.344140625000023 53.99953124999999 16.45703125 53.2265625 C17.507860560772826 46.443160282490936 18.962988016185022 40.01486277789575 21.125 33.5 C20.795000000000016 33.17 20.465000000000032 32.84 20.125 32.5 C20.784999999999968 32.5 21.444999999999993 32.5 22.125 32.5 C23.127697988443458 29.841937254336926 23.127697988443458 29.841937254336926 23.125 26.5 C21.672564506522747 23.82703047839061 19.688871707525095 21.718904324052815 17.625 19.5 C17.106796874999986 18.909609375000002 16.588593749999973 18.319218750000005 16.0546875 17.7109375 C12.429148341769917 13.656763170353564 8.568999561879934 9.663525111846738 4.125 6.5 C3.465000000000032 6.5 2.805000000000007 6.5 2.125 6.5 C2.125 5.84 2.125 5.18 2.125 4.5 C0.5496691432670104 3.63116294351941 -1.0356450946549103 2.780409321187335 -2.625 1.9375 C-3.5067187500000045 1.4618359374999983 -4.388437500000009 0.9861718750000001 -5.296875 0.49609375 C-8.147667461027424 -0.6053487917605977 -9.063006192749583 -0.42306753238002415 -11.875 0.5 C-12.534999999999997 0.1700000000000017 -13.194999999999993 -0.16000000000000014 -13.875 -0.5 Z M78.125 4.5 C77.79500000000002 5.16 77.46500000000003 5.82 77.125 6.5 C75.79794976242619 7.179087541615594 74.46359725106811 7.843966752629701 73.125 8.5 C66.559363855735 13.448830669767219 57.75843143961606 20.59970568115171 55.125 28.5 C55.78661202627052 30.18711066698981 56.46034367955531 31.871559179870367 57.22265625 33.515625 C58.705040597872426 36.77558711566742 59.88735287860078 40.14067209905925 61.125 43.5 C61.78499999999997 43.5 62.44499999999999 43.5 63.125 43.5 C62.13499999999999 43.995000000000005 62.13499999999999 43.995000000000005 61.125 44.5 C61.78499999999997 48.46000000000001 62.44499999999999 52.42 63.125 56.5 C64.7028125 56.46906250000001 64.7028125 56.46906250000001 66.3125 56.4375 C70.125 57.5 70.125 57.5 71.703125 59.5703125 C72.94478966875016 61.84669772604195 74.08410344136507 64.12560462431206 75.125 66.5 C79.86859797304396 65.62243437498687 83.45408037544382 64.77897617432068 86.4453125 60.69921875 C87.7279752864722 58.66001533797383 88.93562621456192 56.594832538223244 90.125 54.5 C90.63546874999997 53.7098046875 91.1459375 52.91960937499999 91.671875 52.10546875 C98.0470624145629 40.67468916528644 98.78998470932254 23.332586866078103 96.62890625 10.5703125 C95.55048033928193 6.853703429163666 94.67613282226444 4.966343157300656 91.6875 2.4375 C86.42766599254577 0.5131704850777261 82.92451471021229 2.1455210855562257 78.125 4.5 Z M35.125 12.8125 C24.111235414717044 21.560411975289824 19.67675195404604 38.96142707448587 17.26171875 52.29296875 C17.119807768366286 55.62179491917915 17.273356598733642 56.777296436402224 19.25 59.375 C19.7333984375 59.877734375 20.216796875 60.380468750000006 20.71484375 60.8984375 C23.726381095967895 64.31874307298291 24.566323024737017 69.2484897839025 25.64453125 73.59375 C26.062036759696923 75.25019462383815 26.584803772461385 76.87941131738413 27.125 78.5 C28.11500000000001 78.83 29.105000000000018 79.16 30.125 79.5 C30.29515624999999 78.654375 30.465312499999982 77.80875 30.640625 76.9375 C33.888005780346816 61.73699421965317 33.888005780346816 61.73699421965317 39.125 56.5 C41.5 56.5 41.5 56.5 44.125 57.5 C48.932242113759344 62.74426412410111 50.25267861392126 69.78752864778157 52.125 76.5 C53.11500000000001 76.17 54.10500000000002 75.84 55.125 75.5 C56.30677362387996 72.87187656778937 57.31110751162089 70.33788030561811 58.25 67.625 C58.51425781249998 66.8915234375 58.77851562500001 66.158046875 59.05078125 65.40234375 C64.00540608800026 51.594785191308944 58.95004979828019 37.854377051588884 52.8671875 24.80078125 C49.942841788790815 19.237167554145984 46.85757106688254 14.953495248341753 41.1875 11.9375 C38.05709688064644 11.216156525932078 38.05709688064644 11.216156525932078 35.125 12.8125 Z M-35.25 27.5625 C-41.3764300083179 34.41826691407003 -43.24868882131787 43.53146828837106 -42.875 52.5 C-42.215 52.5 -41.55500000000001 52.5 -40.875 52.5 C-40.215 51.18000000000001 -39.55500000000001 49.86 -38.875 48.5 C-35.80126537478105 49.12871844606751 -33.54242591939044 49.624256293648315 -31.5859375 52.19140625 C-30.612995243313662 53.92380343366814 -29.73695316845783 55.70978957320298 -28.875 57.5 C-27.88499999999999 57.17 -26.894999999999982 56.84 -25.875 56.5 C-25.875 55.84 -25.875 55.18000000000001 -25.875 54.5 C-25.215000000000003 54.5 -24.555000000000007 54.5 -23.875 54.5 C-21.1852946455584 49.12058929111679 -22.880145612911747 42.7598006969027 -24.5625 37.3125 C-26.302628810313507 32.44635407687329 -28.17770175522122 29.097371265190148 -31.875 25.5 C-33.273420710774644 25.39071889075896 -33.273420710774644 25.39071889075896 -35.25 27.5625 Z M114.125 25.5 C107.43997297565284 30.885160658501874 105.29631738701607 38.69029331009323 104.25 47 C103.87835133491444 50.6925093176241 103.9502427185999 51.23786407789984 106.125 54.5 C106.78499999999997 54.5 107.445 54.5 108.125 54.5 C108.45500000000004 55.489999999999995 108.78499999999997 56.480000000000004 109.125 57.5 C111.11305270075309 55.70128565169961 112.22172727456126 54.30654545087748 113.4375 51.875 C115.125 49.5 115.125 49.5 118.3125 48.6875 C119.24062500000002 48.625625 120.16874999999999 48.56375 121.125 48.5 C121.78499999999997 49.81999999999999 122.445 51.14 123.125 52.5 C123.45499999999998 52.5 123.78499999999997 52.5 124.125 52.5 C124.125 49.53 124.125 46.56 124.125 43.5 C123.79500000000002 43.5 123.46500000000003 43.5 123.125 43.5 C123.02703125 42.847734375 122.92906249999999 42.19546875 122.828125 41.5234375 C121.86100363754122 35.870779881490805 120.79295317989192 31.9460038544145 117.125 27.5 C116.13499999999999 26.840000000000003 115.14499999999998 26.18 114.125 25.5 Z M-57.875 38.5 C-58.204999999999984 39.49 -58.535 40.48 -58.875 41.5 C-59.535 41.5 -60.19499999999999 41.5 -60.875 41.5 C-63.10156163989916 46.24354436326345 -64.33648032176833 50.222507153329616 -64.875 55.5 C-65.20499999999998 55.5 -65.535 55.5 -65.875 55.5 C-66.67069767413642 61.65596116355094 -66.67069767413642 61.65596116355094 -64.6796875 67.27734375 C-60.73133159022012 70.6999135712916 -57.90251335670081 70.6267195847938 -52.875 70.3125 C-49.790874388860914 69.68185282784417 -49.790874388860914 69.68185282784417 -47.4375 67.625 C-44.613631016268215 61.97726203253643 -46.050028993696486 56.37253417960639 -47.7421875 50.48046875 C-49.93212034593279 43.99776544216395 -49.93212034593279 43.99776544216395 -53.875 38.5 C-55.19499999999999 38.5 -56.514999999999986 38.5 -57.875 38.5 Z M134.125 40.25 C129.54289159682088 47.69592615516608 126.6178737410691 56.70258858158944 128.125 65.5 C128.78499999999997 66.16 129.445 66.82 130.125 67.5 C131.115 66.84 132.10500000000002 66.18 133.125 65.5 C132.46500000000003 66.49 131.805 67.48 131.125 68.5 C134.8099779581566 70.9566519721044 137.8447178605863 71.20086491171686 142.125 70.5 C144.93503460381248 68.70636089118352 146.63440467673496 67.48119064653007 148.125 64.5 C147.7496895965573 56.868688463331125 145.9293559235606 49.61142332314233 143.125 42.5 C142.46499999999997 42.17 141.805 41.84 141.125 41.5 C140.79500000000002 40.51 140.46499999999997 39.52 140.125 38.5 C136.18379505427396 38.060996928087654 136.18379505427396 38.060996928087654 134.125 40.25 Z M-36.875 49.5 C-42.15865670800011 55.61791829347381 -44.06636358924004 59.41363589240039 -44.875 67.5 C-45.204999999999984 67.5 -45.535 67.5 -45.875 67.5 C-46.5087453767938 74.12848015986094 -46.5087453767938 74.12848015986094 -44.125 80.0625 C-40.47357381278255 82.39535561961115 -38.23460273348772 82.5 -33.875 82.5 C-31.674325791909183 81.56716703579121 -31.674325791909183 81.56716703579121 -29.875 80.5 C-29.875 79.84 -29.875 79.18 -29.875 78.5 C-28.88499999999999 78.17 -27.894999999999982 77.84 -26.875 77.5 C-25.833080550182075 72.23662626317787 -26.033648681081615 68.56966632335805 -27.5625 63.4375 C-27.896367187500005 62.270898437499994 -28.23023437500001 61.104296875 -28.57421875 59.90234375 C-29.94565742547576 56.315187334566446 -31.520367793488845 53.52995693113198 -33.875 50.5 C-34.86500000000001 50.17 -35.85500000000002 49.84 -36.875 49.5 Z M114.75 51.75 C109.16888441262279 58.75537653845865 107.420602762317 67.76547425273122 108.125 76.5 C108.45500000000004 77.16 108.78499999999997 77.82 109.125 78.5 C110.11500000000001 78.5 111.10500000000002 78.5 112.125 78.5 C111.79499999999996 79.16 111.46500000000003 79.82 111.125 80.5 C113.90325456324126 81.78776152851661 113.90325456324126 81.78776152851661 117.125 82.5 C119.50805195783005 81.2565153112235 119.50805195783005 81.2565153112235 121.125 79.5 C120.46500000000003 80.49 119.805 81.48 119.125 82.5 C122.20448132000769 81.67880498133128 124.57083524625295 80.9802761199141 127 78.875 C129.68809452782625 73.200133774589 128.11165640232372 67.16197074662259 126.125 61.5 C123.64970909733995 54.82822527643208 123.64970909733995 54.82822527643208 119.125 49.5 C116.8217237142893 49.27075178402974 116.8217237142893 49.27075178402974 114.75 51.75 Z M94.125 50.5 C94.125 51.49000000000001 94.125 52.47999999999999 94.125 53.5 C95.04732421874996 54.41072265625 95.04732421874996 54.41072265625 95.98828125 55.33984375 C98.43999364806007 57.81844878862378 99.21713046592686 59.77639139778057 100.3125 63.0625 C100.6360546875 64.0125390625 100.95960937500001 64.962578125 101.29296875 65.94140625 C101.56753906250003 66.7857421875 101.842109375 67.630078125 102.125 68.5 C102.45500000000004 69.49 102.78499999999997 70.48 103.125 71.5 C104.28066575423196 80.95012755992215 104.28066575423196 80.95012755992215 101.78515625 84.296875 C100.125 85.625 100.125 85.625 97.125 87.5 C97.125 87.83 97.125 88.16 97.125 88.5 C105.98398936922285 87.96588213782232 114.47020916828637 86.35710086672398 123.125 84.5 C123.125 84.17 123.125 83.84 123.125 83.5 C122.12919921874999 83.461328125 122.12919921874999 83.461328125 121.11328125 83.421875 C116.96682808022109 83.15553348252516 113.79696963590254 82.84284165097068 110.0625 80.9375 C107.39758655812557 77.5848669602225 106.94339956263923 74.66335817504951 107.125 70.5 C107.51908462388428 68.43306636044377 107.937055303124 66.37058692809349 108.375 64.3125 C109.02905091522751 61.294836064775296 109.02905091522751 61.294836064775296 109.125 58.5 C107.01900826173107 55.30671116039517 107.01900826173107 55.30671116039517 104.125 53.5 C103.79499999999996 52.84 103.46500000000003 52.18000000000001 103.125 51.5 C100.99923217880342 51.03348793363597 100.99923217880342 51.03348793363597 98.5625 50.875 C97.7362109375 50.800234375 96.90992187500001 50.725468750000005 96.05859375 50.6484375 C95.42050781249998 50.599453125 94.78242187500001 50.55046874999999 94.125 50.5 Z M-12.875 54.5 C-12.875 58.78999999999999 -12.875 63.08 -12.875 67.5 C-13.204999999999984 64.2 -13.534999999999997 60.900000000000006 -13.875 57.5 C-17.803931854355938 61.42893185435592 -18.81786362314392 63.757340505889886 -19 69.3125 C-18.95875000000001 70.364375 -18.917500000000018 71.41625 -18.875 72.5 C-19.534999999999997 72.5 -20.194999999999993 72.5 -20.875 72.5 C-21.541487474703615 79.02371299585187 -21.541487474703615 79.02371299585187 -18.375 84.5625 C-17.55000000000001 85.201875 -16.724999999999994 85.84125 -15.875 86.5 C-14.884999999999991 86.17 -13.894999999999982 85.84 -12.875 85.5 C-12.215000000000003 85.83 -11.555000000000007 86.16 -10.875 86.5 C-8.866995443713108 86.21887936211984 -6.864859489497462 85.88932033490168 -4.875 85.5 C-4.875 84.51 -4.875 83.52 -4.875 82.5 C-3.884999999999991 82.5 -2.894999999999982 82.5 -1.875 82.5 C0.45388985834881623 77.84222028330242 -1.391506332606923 71.28662421855717 -2.6953125 66.46875 C-4.38097080846984 61.53123117519074 -5.745876710577136 57.8898135956976 -9.875 54.5 C-10.865000000000009 54.5 -11.855000000000018 54.5 -12.875 54.5 Z M91.125 54.5 C85.2779320969837 60.34706790301627 82.89488813686256 69.01565338595533 82.8125 77.125 C82.89190594821201 79.7077829471067 82.96724068712604 81.18448137425207 84.125 83.5 C84.78499999999997 83.5 85.445 83.5 86.125 83.5 C86.125 84.16 86.125 84.82 86.125 85.5 C90.72983109876674 86.32886959777801 94.60935814629431 86.90486635448622 99.125 85.5 C101.75557551367166 83.6084757341958 101.75557551367166 83.6084757341958 103.125 80.5 C103.19854909277296 77.410938103537 102.85083348963883 74.50259323918975 102.125 71.5 C101.79500000000002 71.17 101.46500000000003 70.84 101.125 70.5 C101.00125000000003 69.448125 100.8775 68.39625 100.75 67.3125 C100.12314405814993 63.48867875471437 99.00776277679682 60.85622929776824 97.125 57.5 C96.79499999999996 57.5 96.46500000000003 57.5 96.125 57.5 C95.79499999999996 59.480000000000004 95.46500000000003 61.459999999999994 95.125 63.5 C95.125 60.86 95.125 58.22 95.125 55.5 C93.805 55.17 92.48500000000001 54.84 91.125 54.5 Z M15.125 56.5 C14.134999999999991 56.995000000000005 14.134999999999991 56.995000000000005 13.125 57.5 C13.125 60.8 13.125 64.1 13.125 67.5 C12.794999999999959 64.86 12.465000000000032 62.22 12.125 59.5 C9.11158892850051 62.91173552347932 7.9972403644731 66.55607496096717 6.875 70.875 C6.689374999999984 71.522109375 6.503749999999968 72.16921875 6.3125 72.8359375 C5.1892694304112865 77.05656145845464 4.981710920654507 80.27910031787589 6.125 84.5 C8.485206222583429 87.51129759433054 10.314505966184527 88.95564370945493 14.125 89.5 C14.125 88.84 14.125 88.18 14.125 87.5 C14.784999999999968 88.16 15.444999999999993 88.82 16.125 89.5 C18.727805681018594 89.17958602776511 18.727805681018594 89.17958602776511 21.125 88.5 C21.125 87.51 21.125 86.52 21.125 85.5 C22.444999999999993 85.17 23.764999999999986 84.84 25.125 84.5 C25.892180099285156 74.8676276423088 23.74159174584588 65.49338623779069 18.125 57.5 C17.13499999999999 57.17 16.144999999999982 56.84 15.125 56.5 Z M39.125 57.5 C35.11596184335065 63.513557234974044 32.513057595544524 68.15669114653448 33.125 75.5 C32.46500000000003 75.83 31.805000000000007 76.16 31.125 76.5 C30.812841321838278 80.48002314656195 30.761319237442308 82.85656480470557 32.75 86.375 C36.436045052923305 89.67304031051034 39.45907708953234 89.5666369164187 44.25 89.375 C48.07930218629298 88.20956020417171 49.192112129703844 86.99406653476615 51.125 83.5 C52.19063201699663 74.51824442817116 49.068179153462495 66.52062261271293 44.50390625 58.8984375 C44.048867187500036 58.436953125 43.59382812499996 57.975468750000005 43.125 57.5 C41.80500000000001 57.5 40.485000000000014 57.5 39.125 57.5 Z M66.125 56.5 C59.1706640871156 62.10210392982353 56.693853294957705 71.28551146288761 55.75 79.9375 C55.82651552434652 83.62365556335814 55.82651552434652 83.62365556335814 58.3125 86.375 C62.415661787797546 89.4751666841137 65.06418033697861 89.5 70.125 89.5 C73.71086982781998 87.02293666947556 73.71086982781998 87.02293666947556 76.125 83.5 C76.19450541338699 81.9597600393449 76.20952357318276 80.41665012279478 76.1875 78.875 C76.17847656250001 78.057734375 76.16945312500002 77.24046875 76.16015625 76.3984375 C76.1485546875 75.771953125 76.13695312499999 75.14546874999999 76.125 74.5 C75.79500000000002 74.5 75.46500000000003 74.5 75.125 74.5 C75.01542968749999 73.919921875 74.90585937499998 73.33984375 74.79296875 72.7421875 C73.10221363552466 64.29674372402084 73.10221363552466 64.29674372402084 67.9375 57.625 C67.33937500000002 57.25375 66.74125000000004 56.88249999999999 66.125 56.5 Z M76.125 68.5 C76.24359375 69.5248046875 76.3621875 70.549609375 76.484375 71.60546875 C76.6157399837316 72.9660346529342 76.74588401900928 74.32671882779384 76.875 75.6875 C76.99681640624999 76.697802734375 76.99681640624999 76.697802734375 77.12109375 77.728515625 C77.44381313784532 81.40393087546079 77.28485190353604 83.2436857408818 75.3125 86.40625 C73.00088644317543 88.6187944043892 71.16497245173002 89.57111952863805 68.125 90.5 C68.125 90.83 68.125 91.16 68.125 91.5 C71.10436216019605 91.35754829956336 74.08344419941454 91.2111200585549 77.0625 91.0625 C77.89330078124999 91.02318359375 78.72410156249998 90.9838671875 79.580078125 90.943359375 C85.12865013866434 90.66269230816096 90.60871636799084 90.16239934632603 96.125 89.5 C96.125 89.17 96.125 88.84 96.125 88.5 C95.52171874999999 88.3904296875 94.91843749999998 88.280859375 94.296875 88.16796875 C86.03223621294228 86.52837105514823 86.03223621294228 86.52837105514823 83.125 83.5 C81.15830731620372 77.59992194861105 82.27737464409415 71.53933066082914 83.125 65.5 C80.75279013463921 65.5 78.19622266647093 67.44235438307867 76.125 68.5 Z M-24.8125 55 C-26.667436227996973 57.14260260356343 -26.667436227996973 57.14260260356343 -27.875 59.5 C-27.48827229433965 63.1104235007751 -27.48827229433965 63.1104235007751 -26.58203125 65.3515625 C-25.280291530377582 69.30712518393551 -25.265606114311254 73.4011006498316 -25.875 77.5 C-27.7601522304287 80.07637471491924 -29.06834856818719 81.0966742840936 -31.875 82.5 C-36.26231187595761 83.02578786725621 -39.808575172038445 83.02186746900247 -43.8125 81.0625 C-46.678698046590114 77.50146606332741 -47.23708579652157 73.9558783168344 -47.875 69.5 C-48.834062500000016 70.0259375 -48.834062500000016 70.0259375 -49.8125 70.5625 C-55.12593336086135 72.18906123291674 -60.02089657717022 71.44597113409682 -64.9375 68.9375 C-65.576875 68.463125 -66.21625 67.98875 -66.875 67.5 C-67.74936418451867 69.23575648658883 -67.74936418451867 69.23575648658883 -67.875 71.5 C-60.638645253167454 82.31156089253602 -44.67355717980317 84.54544322578869 -32.724609375 86.96826171875 C-24.495251361400108 88.50386330833366 -16.191930753187876 89.56740298539621 -7.875 90.5 C-7.006171875000007 90.59788818359375 -6.137343750000014 90.6957763671875 -5.2421875 90.796630859375 C-0.5583573873779528 91.29714917122192 4.0330058672654445 91.6173487689853 8.75 91.5625 C9.773515625000016 91.55347656250001 10.797031250000032 91.54445312499999 11.8515625 91.53515625 C12.601796874999991 91.5235546875 13.352031249999982 91.51195312499999 14.125 91.5 C13.521718749999991 91.21125 12.918437499999982 90.9225 12.296875 90.625 C9.07491943035535 88.95607337399701 7.320050583303896 87.42673411107188 5.125 84.5 C4.263489329618778 78.85231893861206 5.153178247693518 73.08797507576236 6.125 67.5 C3.4850000000000136 66.84 0.8450000000000273 66.18 -1.875 65.5 C-1.7074218750000227 66.3572265625 -1.5398437499999886 67.214453125 -1.3671875 68.09765625 C0.800293518956039 80.26573007160775 0.800293518956039 80.26573007160775 -1.875 85.5 C-5.692834586307356 88.08265280838438 -10.398202283896978 88.0890523310662 -14.875 87.5 C-18.717623254122998 85.82929423733783 -20.348066297599928 84.35897790242925 -21.875 80.5 C-22.331240484544026 72.10517508438967 -19.501809826191618 62.440214739287455 -14.875 55.5 C-15.18340598886354 53.34725052218121 -15.18340598886354 53.34725052218121 -15.875 51.5 C-20.22128330850626 51.07817700991967 -21.883231652492043 51.77966270464242 -24.8125 55 Z M129.125 69.5 C129.063125 70.69625 129.00125000000003 71.8925 128.9375 73.125 C128.37587712978325 77.90730383427002 126.43505449388385 80.1050723139653 123.125 83.5 C130.72171157906428 82.23388140348928 137.67144325875842 79.79268113569074 144.125 75.5 C145.9753551896535 72.93547068016079 145.9753551896535 72.93547068016079 147.125 70.5 C146.46499999999997 70.17 145.805 69.84 145.125 69.5 C144.568125 69.809375 144.01125000000002 70.11875 143.4375 70.4375 C139.30876295793337 72.33448728959819 135.41524985799106 71.93923399420973 131.1875 70.5 C130.50687500000004 70.17 129.82624999999996 69.84 129.125 69.5 Z M-67.875 74.5 C-67.875 90.01 -67.875 105.52000000000001 -67.875 121.5 C-60.18243124004965 124.71141235251548 -60.18243124004965 124.71141235251548 -52.45703125 126.87890625 C-51.525361328125 127.07637451171874 -50.59369140625 127.27384277343751 -49.6337890625 127.477294921875 C-48.661513671875014 127.67041259765625 -47.68923828125 127.8635302734375 -46.6875 128.0625 C-45.64432617187501 128.27302001953126 -44.601152343750016 128.4835400390625 -43.5263671875 128.700439453125 C-32.69784671864613 130.8235668092885 -21.849729704423737 132.37237373220682 -10.875 133.5 C-9.877426757812486 133.60441406249998 -8.879853515624973 133.708828125 -7.85205078125 133.81640625 C24.159547580819265 137.00495316329042 57.13509158130205 136.79195817934195 89.125 133.5 C90.66824951171873 133.34724609375002 90.66824951171873 133.34724609375002 92.24267578125 133.19140625 C121.39342780398493 131.6746109913446 121.39342780398493 131.6746109913446 147.125 121.5 C147.21804018011755 120.02645652052587 147.24246265091017 118.54849409129952 147.238525390625 117.072021484375 C147.23844985961915 116.13112167358398 147.2383743286133 115.19022186279295 147.23829650878906 114.22080993652344 C147.23313522338867 113.19790359497071 147.22797393798828 112.17499725341798 147.22265625 111.12109375 C147.22124130249023 110.07929458618165 147.21982635498046 109.03749542236329 147.21836853027344 107.96412658691406 C147.21275079835357 104.6218890601734 147.20019530021398 101.27971743181371 147.1875 97.9375 C147.18248728411595 95.67773533935092 147.1779239825155 93.41796963346724 147.173828125 91.158203125 C147.1627756109935 85.60544609404161 147.1460202406888 80.05272775294239 147.125 74.5 C146.59367965698243 74.84167709350587 146.06235931396486 75.18335418701172 145.5149383544922 75.53538513183594 C144.80835586547852 75.98446731567383 144.10177337646485 76.43354949951171 143.373779296875 76.896240234375 C142.6774589538574 77.34104232788086 141.98113861083982 77.78584442138671 141.2637176513672 78.24412536621094 C137.97361247966126 80.176105319246 134.55847100836036 81.39858715718125 130.9375 82.5625 C130.16196777343748 82.81362548828125 129.38643554687496 83.0647509765625 128.58740234375 83.323486328125 C76.33057186801932 99.58151398061621 -9.88783840350942 103.20932565841451 -59.875 79.5 C-62.514999999999986 77.85 -65.155 76.2 -67.875 74.5 Z M53.125 78.5 C52.81562500000001 79.593125 52.50625000000002 80.68625 52.1875 81.8125 C51.541621033527974 84.05407994246174 50.862688299878585 86.2869351003642 50.125 88.5 C44.750637322147725 90.69361741953153 40.77725608925573 90.79723910245212 35.125 89.5 C31.75165501130118 87.01437737674824 30.436993788905227 84.43598136671571 29.125 80.5 C28.465000000000032 80.5 27.805000000000007 80.5 27.125 80.5 C26.774374999999964 81.593125 26.42375000000004 82.68625 26.0625 83.8125 C24.748164594508467 86.96435286559617 23.589352865596197 88.12316459450848 20.4375 89.4375 C19.344375000000014 89.78812500000001 18.251250000000027 90.13875 17.125 90.5 C17.125 91.16 17.125 91.82 17.125 92.5 C23.15730491156694 92.52474908914043 29.189580151787425 92.54288333896258 35.221923828125 92.554931640625 C37.27336135828125 92.55995530469285 39.32479531792467 92.56677537268706 41.376220703125 92.575439453125 C44.32764569520589 92.58759111814447 47.279023274415465 92.59324804022617 50.23046875 92.59765625 C51.14523483276366 92.60281753540039 52.060000915527326 92.60797882080078 53.00248718261719 92.61329650878906 C57.17384192398134 92.61366264620324 61.058793082518264 92.56733315091027 65.125 91.5 C64.56812500000001 91.273125 64.01125000000002 91.04625 63.4375 90.8125 C60.38689256900898 89.08107416078889 58.38381238963257 87.18615527415761 56.125 84.5 C55.3125 81.1875 55.3125 81.1875 55.125 78.5 C54.46500000000003 78.5 53.80500000000001 78.5 53.125 78.5 Z M-67.875 123.5 C-67.875 127.13 -67.875 130.76 -67.875 134.5 C-31.060592580877852 147.04569191377905 10.392202772415658 149.91259306072595 49.125 148.5 C50.41889648437501 148.45359375 51.71279296875002 148.4071875 53.0458984375 148.359375 C103.0118879952135 149.03387847120752 103.0118879952135 149.03387847120752 147.125 133.5 C147.7279083978002 130.99638210683673 147.7279083978002 130.99638210683673 147.4375 128.3125 C147.3923828125 127.4114453125 147.34726562499998 126.51039062500001 147.30078125 125.58203125 C147.21376953125002 124.55142578125 147.21376953125002 124.55142578125 147.125 123.5 C146.28324218750004 123.7307421875 145.44148437499996 123.961484375 144.57421875 124.19921875 C79.81486698502931 141.21283868409924 2.0474633063630563 143.76584583613203 -62.55078125 124.453125 C-65.61906242461384 123.40812795225102 -65.61906242461384 123.40812795225102 -67.875 123.5 Z M-67.875 136.5 C-67.875 148.38 -67.875 160.26 -67.875 172.5 C-55.23950883825225 176.57383618858137 -55.23950883825225 176.57383618858137 -42.4375 179.625 C-41.62458496093751 179.78331298828124 -40.811669921874994 179.9416259765625 -39.97412109375 180.104736328125 C-19.59680251197318 183.90231014373094 1.1654152081360962 185.6342193233398 21.875 185.703125 C22.55286560058596 185.70595237731933 23.230731201171864 185.70877975463867 23.92913818359375 185.7116928100586 C27.52991090632611 185.72655233986328 31.130645071776257 185.73586009733532 34.7314453125 185.740234375 C37.63196683412133 185.74457719544495 40.53218386304786 185.7583236291101 43.4326171875 185.78125 C97.47898300263256 187.5520936273224 97.47898300263256 187.5520936273224 147.125 171.5 C147.3918621284256 168.80459685339324 147.47318073188546 166.34152535788618 147.41796875 163.6484375 C147.41372390747074 162.8744058227539 147.40947906494137 162.10037414550783 147.4051055908203 161.30288696289063 C147.38828997759583 158.82657323157642 147.3506339479212 156.35106841722234 147.3125 153.875 C147.2974568230901 152.19792840643612 147.28376777888866 150.52084407759355 147.271484375 148.84375 C147.23837721173754 144.72885418651035 147.18657636536898 140.61456431157842 147.125 136.5 C145.3112890625 136.90412109375 145.3112890625 136.90412109375 143.4609375 137.31640625 C142.634326171875 137.4996142578125 141.80771484374998 137.682822265625 140.9560546875 137.87158203125 C139.0030555684266 138.3050952886228 137.05061318082176 138.74112166271007 135.0986328125 139.17919921875 C117.50720893255289 143.0969283565247 100.09818963039629 145.96455233974982 82.125 147.5 C81.14926025390628 147.5942626953125 80.1735205078125 147.688525390625 79.168212890625 147.78564453125 C66.62143222225211 148.86925216255483 54.02135569436939 148.74293456261432 41.4375 148.75 C40.1953372192383 148.75100708007813 38.953174438476594 148.75201416015625 37.673370361328125 148.7530517578125 C4.088086916438101 148.73467329827642 -28.761511332893605 146.6067909539917 -61.234375 137.453125 C-64.73147777577299 136.37336655942846 -64.73147777577299 136.37336655942846 -67.875 136.5 Z M-67.875 174.5 C-67.875 177.8 -67.875 181.1 -67.875 184.5 C-62.79795573755814 187.34910803634585 -57.80821214833301 188.709619874887 -52.1875 190 C-51.263403320312506 190.21503173828125 -50.33930664062501 190.4300634765625 -49.38720703125 190.651611328125 C-34.071667318946936 194.12813686124895 -18.521298009411368 196.2169355111891 -2.875 197.5 C-1.8079785156249955 197.58902587890626 -0.7409570312499909 197.6780517578125 0.3583984375 197.769775390625 C12.082722557005411 198.62815792724672 23.795914332789323 198.68613526039013 35.5478515625 198.685302734375 C38.9591143769847 198.687473976619 42.37004466656191 198.7056527633751 45.78125 198.724609375 C66.10504762091011 198.77725031605362 86.38186876263455 197.6823563993875 106.5 194.6875 C108.2270617675781 194.4352868652344 108.2270617675781 194.4352868652344 109.989013671875 194.177978515625 C122.6731822389479 192.23883459563282 135.39687785072385 189.84504906406903 147.125 184.5 C147.125 181.2 147.125 177.9 147.125 174.5 C142.21793941041688 175.44919184430267 137.33979437600863 176.414360390989 132.49609375 177.6484375 C121.17848710295766 180.49485074823198 109.8843894375824 182.36124794671588 98.3125 183.75 C97.63387908935545 183.8327215576172 96.95525817871095 183.91544311523438 96.25607299804688 184.00067138671875 C77.6103755770672 186.2457005407079 59.08061639877377 186.7060564355781 40.3125 186.6875 C39.18360351562501 186.68689575195313 38.05470703125002 186.68629150390626 36.8916015625 186.6856689453125 C4.880362164712892 186.6391805344557 -26.51853159132213 184.52552638482936 -57.64453125 176.55078125 C-61.03451210944121 175.68242287948445 -64.40937526937842 175.00784516986565 -67.875 174.5 Z M-67.875 186.5 C-67.93687499999999 187.2425 -67.99875 187.985 -68.0625 188.75 C-69.1229615344945 192.33925442444286 -70.97090715621158 193.23339095118953 -73.875 195.5 C-76.05933161630537 199.0743608266815 -76.24798853889382 202.3727512163561 -75.625 206.515625 C-74.43204866004683 209.67197542029277 -72.14341621826787 211.16196881134988 -69.49609375 213.1328125 C-67.875 214.5 -67.875 214.5 -67 217.0625 C-64.63861497155017 222.17883422830795 -58.615312387345455 223.8068247270743 -53.6484375 225.78515625 C-16.662882519741032 238.95974936388313 25.836729760069716 238.881944211387 64.625 236.6875 C65.40914276123044 236.64365173339843 66.19328552246094 236.59980346679686 67.00119018554688 236.55462646484375 C107.76193711975236 235.30512267612937 107.76193711975236 235.30512267612937 144.125 219.5 C144.42148437499998 218.8412890625 144.71796875 218.182578125 145.0234375 217.50390625 C146.38791708495427 215.02171466460447 147.48271073141706 214.57611321445546 150.0625 213.5 C154.49154369250266 211.4656688183977 154.49154369250266 211.4656688183977 157.125 207.5 C157.76692639723592 203.6849147073366 157.95842117407585 200.18465049289696 156.2109375 196.65234375 C153.4186928372103 192.98639672498257 150.53459932776138 191.52548821575846 146.125 190.5 C146.125 189.18 146.125 187.86 146.125 186.5 C145.5591821289063 186.660810546875 144.99336425781246 186.82162109375 144.410400390625 186.9873046875 C78.17102000297405 205.58872908479327 -1.6630599241689197 205.9531036880474 -67.875 186.5 Z M-115.348876953125 211.951416015625 C-117.57877690528684 214.50037830455432 -118.82339852965623 216.0149461787685 -119.1875 219.4375 C-116.11208161710229 226.61347622676132 -109.95669095108545 229.71393833591918 -103 232.625 C-100.31083046229668 233.6440149958192 -97.60188936527183 234.58716620490662 -94.875 235.5 C-94.2286962890625 235.7189794921875 -93.582392578125 235.93795898437497 -92.91650390625 236.16357421875 C-69.5844904108732 243.8440102584691 -44.23629286059736 246.3391105841547 -19.875 248.5 C-18.73079589843752 248.60441406249998 -17.586591796874984 248.70882812499997 -16.40771484375 248.81640625 C22.712642171372238 252.2149032443034 63.035694756484645 252.27613231411033 102.125 248.5 C103.16188964843752 248.40171905517582 103.16188964843752 248.40171905517582 104.2197265625 248.30145263671875 C124.05071309554319 246.41323537833864 143.67373148595215 243.90936564587793 163.125 239.5 C164.40528076171876 239.21237792968748 164.40528076171876 239.21237792968748 165.71142578125 238.9189453125 C174.22136271731023 236.94715135044578 182.13764338149565 234.3306779735671 190 230.5 C190.66080566406248 230.17990966796876 191.32161132812502 229.85981933593752 192.00244140625 229.530029296875 C196.01391688482033 227.44866279758534 198.6949487323455 225.32384625907727 201.125 221.5 C201.31519541991048 218.01308396830822 201.0865549874921 215.77572641904894 198.94140625 212.9296875 C189.48644322577928 203.92271524251294 171.12584334065872 197.5 158.125 197.5 C158.20749999999998 198.675625 158.29000000000002 199.85125 158.375 201.0625 C158.35755347449157 205.98242019337945 157.06424624172172 208.5552221492682 154.125 212.5 C152.14253601615286 213.5343290350507 150.14086683978252 214.5323839169044 148.125 215.5 C147.21205601090685 216.59443285439477 146.34003553651314 217.72365717642612 145.5 218.875 C136.47287230953486 229.95480788881375 115.94384577433124 231.51636365241177 102.625 233.625 C101.6367724609375 233.78363525390625 100.64854492187499 233.9422705078125 99.63037109375 234.105712890625 C80.07335196111057 237.03757104482486 60.50340531851543 237.8791518104282 40.75 237.8125 C39.05620208740231 237.80976577758793 39.05620208740231 237.80976577758793 37.32818603515625 237.80697631835938 C-42.61035987492605 237.59079677964093 -42.61035987492605 237.59079677964093 -66.875 219.5 C-67.55632451067856 217.839271505221 -68.22242126678827 216.172233003855 -68.875 214.5 C-70.76730635905506 212.67583763725443 -72.80540021858718 211.1292594023888 -74.875 209.5 C-76.13737730904245 206.97524538191507 -75.97356404286046 205.18799534311526 -75.9375 202.375 C-75.92847656250001 201.464921875 -75.91945312499999 200.55484375 -75.91015625 199.6171875 C-75.8985546875 198.918515625 -75.88695312499999 198.21984375 -75.875 197.5 C-87.65258611536592 197.5 -106.77653128953224 203.50970739047028 -115.348876953125 211.951416015625 Z M-118.875 224.5 C-118.875 234.73 -118.875 244.96000000000004 -118.875 255.5 C-112.0154959545267 254.84032647553977 -112.0154959545267 254.84032647553977 -106.375 252.4375 C-105.7046875 252.07527343750002 -105.03437500000001 251.71304687500003 -104.34375 251.33984375 C-103.61671874999999 250.92412109375 -103.61671874999999 250.92412109375 -102.875 250.5 C-102.33875 251.67562499999997 -101.80250000000001 252.85125 -101.25 254.0625 C-96.62922492717365 263.1752480530304 -90.4580632443409 267.9522921679547 -80.98828125 271.6171875 C-72.8245103296376 273.93213383375394 -63.46653733686696 273.38965693938417 -55.875 269.5 C-52.42421868791644 267.3128850838907 -49.123947744137126 264.9757117465763 -45.875 262.5 C-45.4728125 263.62921875 -45.4728125 263.62921875 -45.0625 264.78125 C-42.023556772441225 271.73883054730567 -35.91641401738383 275.3650047392174 -29.3046875 278.5546875 C-20.618586605094492 281.9341672694005 -12.026552695686547 281.18069787995444 -3.5 277.77734375 C0.42278374819079545 275.86848915824646 4.033286962324723 273.5999796500755 7.125 270.5 C7.454999999999984 269.51 7.784999999999968 268.52 8.125 267.5 C8.784999999999968 267.5 9.444999999999993 267.5 10.125 267.5 C10.494316406249993 268.61181640625 10.494316406249993 268.61181640625 10.87109375 269.74609375 C13.801894461039922 276.18289904994754 20.901549015924388 281.3127363437031 27.41015625 283.875 C35.7329865205179 285.7910472565221 45.53932670496562 285.90813807990395 53.16796875 281.765625 C54.13669921874998 281.139140625 54.13669921874998 281.139140625 55.125 280.5 C55.84300781249999 280.04109375 56.56101562499998 279.58218750000003 57.30078125 279.109375 C61.660496303560876 276.08068812549703 64.49498108755574 273.10253309677745 67.125 268.5 C68.07375000000002 269.38687500000003 69.02250000000004 270.27375 70 271.1875 C77.72828570987662 277.82973333924224 86.02917104348523 280.9078172963584 96.12109375 280.7734375 C105.17061562914574 279.9496838829126 112.65511281963086 275.7416961387379 119.125 269.5 C120.70519780950502 267.54824216501675 121.89155921229883 265.69874227372816 123.125 263.5 C123.76437499999997 263.891875 124.40375 264.28375 125.0625 264.6875 C127.59439054516838 266.1859658328548 130.13081214893793 267.66945988677156 132.6875 269.125 C133.4312890625 269.550390625 134.17507812500003 269.97578125 134.94140625 270.4140625 C142.39277986378687 274.1197545655326 152.0501915193446 273.4951322873849 159.8125 271.0625 C169.37448822336648 267.0981136416992 175.9386272615851 259.8201877281553 180.125 250.5 C181.27999999999997 251.11874999999998 182.435 251.7375 183.625 252.375 C189.43456850277153 255.27464304032134 194.560598267868 256.5 201.125 256.5 C201.125 245.94 201.125 235.38 201.125 224.5 C197.495 226.81 193.865 229.12 190.125 231.5 C115.66340526259813 268.16912585667313 -7.981508261177055 258.031542975217 -94.875 236.5 C-114.34263773052979 229.56472453894045 -114.34263773052979 229.56472453894045 -116.875 224.5 C-117.535 224.5 -118.195 224.5 -118.875 224.5 Z M58.1875 279.25 C50.45435705534521 284.93149277566476 41.57352818339592 286.7367766843832 32.125 285.5 C28.495000000000005 284.51 24.86500000000001 283.52 21.125 282.5 C21.125 297.68 21.125 312.86 21.125 328.5 C26.288472814939723 329.9752779471256 29.19731359806326 330.7543178373358 34.25 330.765625 C35.928359375000014 330.7694921875 35.928359375000014 330.7694921875 37.640625 330.7734375 C38.79046875 330.765703125 39.940312500000005 330.75796875000003 41.125 330.75 C42.27484375 330.757734375 43.424687500000005 330.76546874999997 44.609375 330.7734375 C45.72828125000001 330.770859375 46.84718750000002 330.76828125 48 330.765625 C49.00804687499999 330.763369140625 50.01609374999998 330.76111328125 51.0546875 330.7587890625 C54.840289893145155 330.5391693800627 54.840289893145155 330.5391693800627 61.125 328.5 C61.454999999999984 311.67 61.78499999999997 294.84 62.125 277.5 C59.93723007728772 277.2765712473437 59.93723007728772 277.2765712473437 58.1875 279.25 Z M4.0625 325.875 C3.27294921875 326.001328125 2.4833984375 326.12765625 1.669921875 326.2578125 C-2.4138332044599338 326.94243196009387 -6.086679259314508 327.74685358076925 -9.875 329.5 C-9.875 330.16 -9.875 330.82 -9.875 331.5 C13.147495224667068 341.4312724498564 44.41867268238167 338.70333349073564 68.8125 336.6875 C69.70066406249998 336.61748779296875 70.58882812500002 336.5474755859375 71.50390625 336.475341796875 C78.44706469900882 335.8138687797439 85.83450188213214 334.6452490589339 92.125 331.5 C92.125 330.84 92.125 330.18 92.125 329.5 C82.78685043408535 325.95794326810136 73.12546129360248 324.30272231135535 63.125 324.5 C63.032187499999964 325.428125 63.032187499999964 325.428125 62.9375 326.375 C62.125 328.5 62.125 328.5 59.9375 329.6875 C53.722748742779686 331.4828725854192 47.731772840154974 331.682705920209 41.3125 331.6875 C40.035361328124964 331.705869140625 40.035361328124964 331.705869140625 38.732421875 331.724609375 C32.41409740806273 331.73904575992066 25.86979141721548 331.3723957086077 20.125 328.5 C19.5 326.4375 19.5 326.4375 19.125 324.5 C13.955010365445219 324.31743214773644 9.136264589924394 325.0092550986839 4.0625 325.875 Z M-9.875 333.5 C-9.875 339.44 -9.875 345.38 -9.875 351.5 C-2.789157335643381 354.17720492112073 -2.789157335643381 354.17720492112073 4.3125 355.625 C5.296054687500032 355.771953125 6.279609375000007 355.91890625 7.29296875 356.0703125 C18.213720887602108 357.29486166935396 29.080434295911687 357.7032363512043 40.0625 357.6875 C41.13809173583985 357.68709213256835 41.13809173583985 357.68709213256835 42.23541259765625 357.6866760253906 C67.84802581937299 358.2485172831087 67.84802581937299 358.2485172831087 92.125 351.5 C92.45499999999998 345.56 92.78499999999997 339.62 93.125 333.5 C91.61937499999999 333.78875 90.11374999999998 334.0775 88.5625 334.375 C86.41760378345361 334.7553234343154 84.27169815977663 335.1299828311333 82.125 335.5 C81.132744140625 335.67700439453125 80.14048828124999 335.8540087890625 79.1181640625 336.036376953125 C67.73052653383843 337.8168572345802 56.38244082223639 337.8378298796406 44.875244140625 337.815673828125 C41.46142357629901 337.8125220869606 38.048479239469316 337.8360195161833 34.634765625 337.861328125 C19.4129579220359 337.90418316682883 5.032970136323229 336.48159402726463 -9.875 333.5 Z " fill="#000000" transform="translate(266.875,20.5)"/>
<path d="M0 0 C0 3 0 3 -1.3125 4.60546875 C-1.869374999999991 5.127539062499999 -2.426249999999982 5.649609374999997 -3 6.1875 C-3.556874999999991 6.717304687500004 -4.113749999999982 7.247109375000001 -4.6875 7.79296875 C-5.120625000000018 8.191289062499997 -5.5537499999999795 8.589609375000002 -6 9 C-6.660000000000025 8.670000000000002 -7.319999999999993 8.340000000000003 -8 8 C-5.360000000000014 5.359999999999999 -2.7200000000000273 2.719999999999999 0 0 Z " fill="#000000" transform="translate(344,39)"/>
<path d="M0 0 C0.8833683664973364 2.4667644951246785 1.1312405999229327 3.6385937248352604 0.22265625 6.140625 C-0.16019531249997954 6.836718750000003 -0.5430468750000159 7.532812500000006 -0.9375 8.25 C-1.3177734375000227 8.95640625 -1.6980468749999886 9.662812500000001 -2.08984375 10.390625 C-2.3901953124999977 10.921718749999997 -2.6905468749999955 11.452812499999993 -3 12 C-4 10 -4 10 -3.22265625 7.6171875 C-2.8398046875000205 6.712265625000001 -2.456953124999984 5.807343750000001 -2.0625 4.875 C-1.6822265624999773 3.9649218750000017 -1.3019531250000114 3.0548437500000034 -0.91015625 2.1171875 C-0.6098046875000023 1.4185156249999977 -0.30945312500000455 0.7198437499999955 0 0 Z " fill="#000000" transform="translate(334,90)"/>
<path d="M0 0 C3.551058462042647 2.547498461900176 4.778136165810281 4.237343069972923 6 8.4375 C6 12.578696274149593 5.363687675193489 14.61204766555602 3 18 C0.375 19.25 0.375 19.25 -2 20 C-2.3300000000000125 20.659999999999997 -2.6599999999999966 21.319999999999993 -3 22 C-3 21.340000000000003 -3 20.680000000000007 -3 20 C-3.742500000000007 19.91749999999999 -4.485000000000014 19.835000000000008 -5.25 19.75 C-8.543025947218268 18.851902014395023 -9.859767876604167 17.615839261928244 -12 15 C-12 14.340000000000003 -12 13.680000000000007 -12 13 C-13.319999999999993 12.669999999999987 -14.639999999999986 12.340000000000003 -16 12 C-15.009999999999991 11.340000000000003 -14.02000000000001 10.680000000000007 -13 10 C-12.690625000000011 8.865624999999994 -12.381249999999994 7.731249999999989 -12.0625 6.5625 C-11 3 -11 3 -9.3125 1.0625 C-5.945037455683973 -0.48471252036142687 -3.662975930558929 -0.5141018849907368 0 0 Z " fill="#000000" transform="translate(254,174)"/>
<path d="M0 0 C4.433039167345385 0.8707755507285526 5.8634650515768385 2.0428781595327052 8.5 5.6875 C9.3125 9.5 9.3125 9.5 9.5 12.6875 C10.819999999999993 13.017500000000013 12.139999999999986 13.347499999999997 13.5 13.6875 C11.850000000000023 13.6875 10.199999999999989 13.6875 8.5 13.6875 C8.231875000000002 14.471249999999998 7.9637500000000045 15.254999999999995 7.6875 16.0625 C6.5 18.6875 6.5 18.6875 3.5 20.6875 C2.509999999999991 20.6875 1.5199999999999818 20.6875 0.5 20.6875 C0.17000000000001592 21.347499999999997 -0.160000000000025 22.007499999999993 -0.5 22.6875 C-0.5 22.027500000000003 -0.5 21.367500000000007 -0.5 20.6875 C-1.3662499999999795 20.594687499999992 -1.3662499999999795 20.594687499999992 -2.25 20.5 C-5.595999767701926 19.29172230610763 -6.6891409024106 17.72715634238216 -8.5 14.6875 C-9.168582063179656 10.007425557742238 -9.218734442471202 7.083070096573863 -6.4375 3.1875 C-3.5 0.6875 -3.5 0.6875 0 0 Z " fill="#000000" transform="translate(351.5,173.3125)"/>
<path d="M0 0 C0.5452734374999864 0.42152343750001364 1.0905468749999727 0.8430468749999989 1.65234375 1.27734375 C6.867331770488363 5.066010260611193 11.387851239173813 7.749457446382507 18 7 C22.119162055303207 5.456329801760148 25.584389444378473 2.7324884444972213 29 0 C28.441625723305776 3.2734691971199084 27.67959324379052 4.721224402125927 25 6.6875 C20.81978051198405 9.420392985036926 16.997050923992788 10.558827412893834 12 10 C6.483055819907406 8.1022993168622 2.269851346084863 5.925872834263316 -1 1 C-0.6700000000000159 0.6699999999999875 -0.339999999999975 0.3400000000000034 0 0 Z " fill="#000000" transform="translate(288,183)"/>
<path d="M0 0 C3.0999874595306665 0.33214151352115096 4.054501204523177 1.0545012045231772 6.3125 3.3125 C8 6 8 6 7.75 8.3125 C7.502499999999998 8.869374999999991 7.2549999999999955 9.42625000000001 7 10 C6.381249999999994 8.638749999999987 6.381249999999994 8.638749999999987 5.75 7.25 C4.109492824866948 4.203343817610062 2.5528163947103337 2.2887319400851425 0 0 Z " fill="#000000" transform="translate(207,212)"/>
<path d="M0 0 C2.7246669092445472 0.5049048863541543 3.624030647761458 1.312736243298616 5.33984375 3.43359375 C4.8448437499999955 3.268593750000008 4.349843749999991 3.1035937499999875 3.83984375 2.93359375 C-1.7288508852664108 1.8198548229467235 -6.561184089271421 1.8841076696357106 -11.66015625 4.43359375 C-8.46656478924507 -0.2116301929162887 -5.202085994847039 -0.007822685706543098 0 0 Z " fill="#000000" transform="translate(294.66015625,228.56640625)"/>
</svg>
