<?xml version="1.0" encoding="UTF-8"?>
<!-- Generator: visioncortex VTracer 0.6.0 -->
<svg version="1.1" xmlns="http://www.w3.org/2000/svg" width="4032" height="3024">
<path d="M0 0 C1330.5600000000002 0 2661.1200000000003 0 4032 0 C4032 997.9200000000001 4032 1995.8400000000001 4032 3024 C2701.4399999999996 3024 1370.8799999999997 3024 0 3024 C0 2026.08 0 1028.1599999999999 0 0 Z M1741 671 C1741 677.93 1741 684.86 1741 692 C1743.3578531826836 691.1066420332436 1743.3578531826836 691.1066420332436 1744.125 687.9375 C1745.640956582725 682.0782074937528 1745.7666568540349 676.53331370807 1743 671 C1742.34 671 1741.68 671 1741 671 Z M1121 887 C1121.4453962762439 890.7724796824535 1121.908524850198 894.5425734287642 1122.375 898.3125 C1122.501328125 899.38435546875 1122.62765625 900.4562109375 1122.7578125 901.560546875 C1122.88671875 902.58857421875 1123.015625 903.6166015625 1123.1484375 904.67578125 C1123.2636474609376 905.6236450195313 1123.378857421875 906.5715087890625 1123.49755859375 907.548095703125 C1123.8892451237746 910.2416087003827 1123.8892451237746 910.2416087003827 1126 913 C1126.4196562552247 904.3737325314928 1125.7836359191738 896.2359870085645 1123 888 C1122.34 887.67 1121.68 887.34 1121 887 Z M1147 937 C1145.4297268339426 938.5702731660574 1145.830256141785 940.14269947388 1145.8125 942.3125 C1145.7983203125 943.0923828125 1145.784140625 943.872265625 1145.76953125 944.67578125 C1146.0201558677445 947.2032668018296 1146.7362622837156 948.817180308236 1148 951 C1148.33 951 1148.66 951 1149 951 C1148.67 946.38 1148.34 941.76 1148 937 C1147.67 937 1147.34 937 1147 937 Z M1133 940 C1131.5457233576606 952.2820727042009 1131.5457233576606 952.2820727042009 1134.23046875 964.12890625 C1135.4240634625057 967.0310984697473 1135.6695425131406 969.893699623522 1136 973 C1136.66 973 1137.32 973 1138 973 C1138.04125 971.80375 1138.0825 970.6075 1138.125 969.375 C1138.1598046875 968.3656640625 1138.1598046875 968.3656640625 1138.1953125 967.3359375 C1138.0915153184424 964.8867846782578 1138.0915153184424 964.8867846782578 1137.0234375 962.2734375 C1135.5373953765604 957.5203714715941 1135.5749587854514 952.8735574907975 1135.43359375 947.92578125 C1135.4323802367664 943.4946486335617 1135.4323802367664 943.4946486335617 1133 940 Z M1122 941 C1122 951.89 1122 962.78 1122 974 C1122.66 974 1123.32 974 1124 974 C1125.1866949885923 963.6164188498183 1126.390763981049 952.2802851185114 1124 942 C1123.34 941.67 1122.68 941.34 1122 941 Z M1167 991 C1166.34 995.62 1165.68 1000.24 1165 1005 C1168.094192744582 1001.905807255418 1168.4202168743566 1001.4733619875527 1168.8125 997.4375 C1168.9014453125 996.6524609375 1168.990390625 995.867421875 1169.08203125 995.05859375 C1169.2240304151296 992.7717694401 1169.2240304151296 992.7717694401 1167 991 Z M1163 1006 C1160.549706694018 1011.7173510472916 1159.6673370858628 1015.7902922694399 1160 1022 C1160.66 1021.67 1161.32 1021.34 1162 1021 C1162.6941986315812 1018.8226493720747 1162.6941986315812 1018.8226493720747 1163.125 1016.25 C1163.292578125 1015.38890625 1163.46015625 1014.5278125 1163.6328125 1013.640625 C1163.992399099644 1011.0546617940495 1164.0656404077363 1008.6068619072383 1164 1006 C1163.67 1006 1163.34 1006 1163 1006 Z M1198 1051 C1196.0627351629446 1054.2647929325674 1195.7029151158627 1056.7857966136253 1195.6875 1060.5625 C1195.6707421875 1061.5125390625 1195.653984375 1062.462578125 1195.63671875 1063.44140625 C1195.7948440142711 1066.3955278476938 1195.7948440142711 1066.3955278476938 1199 1069 C1199 1063.06 1199 1057.12 1199 1051 C1198.67 1051 1198.34 1051 1198 1051 Z M1215 1052 C1215.33 1056.95 1215.66 1061.9 1216 1067 C1216.66 1067 1217.32 1067 1218 1067 C1218.193922011735 1061.4732226655578 1217.747950295919 1057.2438508877572 1216 1052 C1215.67 1052 1215.34 1052 1215 1052 Z M1174 1060 C1174 1061.65 1174 1063.3 1174 1065 C1174.33 1065 1174.66 1065 1175 1065 C1175 1063.35 1175 1061.7 1175 1060 C1174.67 1060 1174.34 1060 1174 1060 Z M1262 1113 C1259.8841710425652 1117.2729826991942 1259.832091667358 1121.029557696775 1260 1125.6875 C1260.1190730971055 1131.3341393562482 1259.8323046286807 1136.3948529023057 1258.33984375 1141.88671875 C1257.9239418088598 1144.4729595564002 1258.3681236207763 1146.4769131990438 1259 1149 C1259.33 1149 1259.66 1149 1260 1149 C1263.7011574592823 1136.5939743532215 1264.2988728129085 1125.8616644843435 1263 1113 C1262.67 1113 1262.34 1113 1262 1113 Z M1323 1120 C1323 1123.63 1323 1127.26 1323 1131 C1325.429451599457 1127.3558226008147 1325.1617957464534 1125.287587281016 1325 1121 C1324.34 1120.67 1323.68 1120.34 1323 1120 Z M1229 1129 C1229.288835794506 1141.95345485509 1229.288835794506 1141.95345485509 1235 1153 C1234.8335806346868 1140.8820277040538 1234.8335806346868 1140.8820277040538 1230.4296875 1130.21875 C1229.957890625 1129.8165625 1229.48609375 1129.414375 1229 1129 Z M1367 1134 C1367 1138.95 1367 1143.9 1367 1149 C1367.66 1148.67 1368.32 1148.34 1369 1148 C1369.0541068660386 1146.2295031057347 1369.09284119174 1144.458531512031 1369.125 1142.6875 C1369.148203125 1141.7013671875 1369.17140625 1140.715234375 1369.1953125 1139.69921875 C1369.2068263883848 1136.775934734493 1369.2068263883848 1136.775934734493 1367 1134 Z M1287 1139 C1286.34 1141.97 1285.68 1144.94 1285 1148 C1285.66 1147.67 1286.32 1147.34 1287 1147 C1287.465230629852 1145.104666584685 1287.465230629852 1145.104666584685 1287.625 1142.9375 C1287.74875 1141.638125 1287.8725 1140.33875 1288 1139 C1287.67 1139 1287.34 1139 1287 1139 Z M1331 1142 C1330.6236579685808 1148.8020337530563 1331.2252892143756 1153.756900732345 1334 1160 C1334.66 1160 1335.32 1160 1336 1160 C1335.6911254673853 1157.561990339653 1335.3780533813883 1155.1246463285952 1335.0625 1152.6875 C1334.97548828125 1151.99720703125 1334.8884765625 1151.3069140625 1334.798828125 1150.595703125 C1334.4078986465404 1147.5985771234764 1333.9584996020892 1144.8754988062676 1333 1142 C1332.34 1142 1331.68 1142 1331 1142 Z " fill="#000000" transform="translate(0,0)"/>
</svg>
